solid base
facet normal -0 1 0
outer loop
vertex -6.68333 -6.68333 0.06667
vertex 6.68333 -6.68333 0.06667
vertex -6.68333 -6.68333 -4.66667
endloop
endfacet
facet normal 0 1 0
outer loop
vertex -6.68333 -6.68333 -4.66667
vertex 6.68333 -6.68333 0.06667
vertex 6.68333 -6.68333 -4.66667
endloop
endfacet
facet normal -1 0 0
outer loop
vertex 6.68333 -6.68333 0.06667
vertex 6.68333 6.68333 0.06667
vertex 6.68333 -6.68333 -4.66667
endloop
endfacet
facet normal -1 0 0
outer loop
vertex 6.68333 -6.68333 -4.66667
vertex 6.68333 6.68333 0.06667
vertex 6.68333 6.68333 -4.66667
endloop
endfacet
facet normal -0 -1 -0
outer loop
vertex 6.68333 6.68333 0.06667
vertex -6.68333 6.68333 0.06667
vertex 6.68333 6.68333 -4.66667
endloop
endfacet
facet normal 0 -1 0
outer loop
vertex 6.68333 6.68333 -4.66667
vertex -6.68333 6.68333 0.06667
vertex -6.68333 6.68333 -4.66667
endloop
endfacet
facet normal 1 0 0
outer loop
vertex -6.68333 6.68333 0.06667
vertex -6.68333 -6.68333 0.06667
vertex -6.68333 6.68333 -4.66667
endloop
endfacet
facet normal 1 0 0
outer loop
vertex -6.68333 6.68333 -4.66667
vertex -6.68333 -6.68333 0.06667
vertex -6.68333 -6.68333 -4.66667
endloop
endfacet
facet normal -0.70711 0.70711 0
outer loop
vertex -11.31667 8.60252 0.06667
vertex -8.60252 11.31667 0.06667
vertex -11.31667 8.60252 -4.66667
endloop
endfacet
facet normal -0.70711 0.70711 0
outer loop
vertex -11.31667 8.60252 -4.66667
vertex -8.60252 11.31667 0.06667
vertex -8.60252 11.31667 -4.66667
endloop
endfacet
facet normal -0 1 0
outer loop
vertex -8.60252 11.31667 0.06667
vertex 8.60252 11.31667 0.06667
vertex -8.60252 11.31667 -4.66667
endloop
endfacet
facet normal 0 1 0
outer loop
vertex -8.60252 11.31667 -4.66667
vertex 8.60252 11.31667 0.06667
vertex 8.60252 11.31667 -4.66667
endloop
endfacet
facet normal 0.70711 0.70711 0
outer loop
vertex 8.60252 11.31667 0.06667
vertex 11.31667 8.60252 0.06667
vertex 8.60252 11.31667 -4.66667
endloop
endfacet
facet normal 0.70711 0.70711 0
outer loop
vertex 8.60252 11.31667 -4.66667
vertex 11.31667 8.60252 0.06667
vertex 11.31667 8.60252 -4.66667
endloop
endfacet
facet normal 1 0 0
outer loop
vertex 11.31667 8.60252 0.06667
vertex 11.31667 -8.60252 0.06667
vertex 11.31667 8.60252 -4.66667
endloop
endfacet
facet normal 1 0 0
outer loop
vertex 11.31667 8.60252 -4.66667
vertex 11.31667 -8.60252 0.06667
vertex 11.31667 -8.60252 -4.66667
endloop
endfacet
facet normal 0.70711 -0.70711 0
outer loop
vertex 11.31667 -8.60252 0.06667
vertex 8.60252 -11.31667 0.06667
vertex 11.31667 -8.60252 -4.66667
endloop
endfacet
facet normal 0.70711 -0.70711 0
outer loop
vertex 11.31667 -8.60252 -4.66667
vertex 8.60252 -11.31667 0.06667
vertex 8.60252 -11.31667 -4.66667
endloop
endfacet
facet normal -0 -1 -0
outer loop
vertex 8.60252 -11.31667 0.06667
vertex -8.60252 -11.31667 0.06667
vertex 8.60252 -11.31667 -4.66667
endloop
endfacet
facet normal 0 -1 0
outer loop
vertex 8.60252 -11.31667 -4.66667
vertex -8.60252 -11.31667 0.06667
vertex -8.60252 -11.31667 -4.66667
endloop
endfacet
facet normal -0.70711 -0.70711 -0
outer loop
vertex -8.60252 -11.31667 0.06667
vertex -11.31667 -8.60252 0.06667
vertex -8.60252 -11.31667 -4.66667
endloop
endfacet
facet normal -0.70711 -0.70711 0
outer loop
vertex -8.60252 -11.31667 -4.66667
vertex -11.31667 -8.60252 0.06667
vertex -11.31667 -8.60252 -4.66667
endloop
endfacet
facet normal -1 0 0
outer loop
vertex -11.31667 -8.60252 0.06667
vertex -11.31667 8.60252 0.06667
vertex -11.31667 -8.60252 -4.66667
endloop
endfacet
facet normal -1 0 0
outer loop
vertex -11.31667 -8.60252 -4.66667
vertex -11.31667 8.60252 0.06667
vertex -11.31667 8.60252 -4.66667
endloop
endfacet
facet normal 0 0 1
outer loop
vertex -6.68333 -6.68333 0.06667
vertex -11.31667 -8.60252 0.06667
vertex -8.60252 -11.31667 0.06667
endloop
endfacet
facet normal 0 0 -1
outer loop
vertex -8.60252 -11.31667 -4.66667
vertex -11.31667 -8.60252 -4.66667
vertex -6.68333 -6.68333 -4.66667
endloop
endfacet
facet normal 0 0 1
outer loop
vertex -6.68333 -6.68333 0.06667
vertex -8.60252 -11.31667 0.06667
vertex 8.60252 -11.31667 0.06667
endloop
endfacet
facet normal 0 0 -1
outer loop
vertex 8.60252 -11.31667 -4.66667
vertex -8.60252 -11.31667 -4.66667
vertex -6.68333 -6.68333 -4.66667
endloop
endfacet
facet normal -0 0 1
outer loop
vertex -6.68333 -6.68333 0.06667
vertex 8.60252 -11.31667 0.06667
vertex 6.68333 -6.68333 0.06667
endloop
endfacet
facet normal -0 -0 -1
outer loop
vertex 6.68333 -6.68333 -4.66667
vertex 8.60252 -11.31667 -4.66667
vertex -6.68333 -6.68333 -4.66667
endloop
endfacet
facet normal 0 0 1
outer loop
vertex 6.68333 -6.68333 0.06667
vertex 8.60252 -11.31667 0.06667
vertex 11.31667 -8.60252 0.06667
endloop
endfacet
facet normal -0 0 -1
outer loop
vertex 11.31667 -8.60252 -4.66667
vertex 8.60252 -11.31667 -4.66667
vertex 6.68333 -6.68333 -4.66667
endloop
endfacet
facet normal -0 0 1
outer loop
vertex 6.68333 -6.68333 0.06667
vertex 11.31667 -8.60252 0.06667
vertex 11.31667 8.60252 0.06667
endloop
endfacet
facet normal 0 -0 -1
outer loop
vertex 11.31667 8.60252 -4.66667
vertex 11.31667 -8.60252 -4.66667
vertex 6.68333 -6.68333 -4.66667
endloop
endfacet
facet normal 0 0 1
outer loop
vertex 6.68333 -6.68333 0.06667
vertex 11.31667 8.60252 0.06667
vertex 6.68333 6.68333 0.06667
endloop
endfacet
facet normal 0 0 -1
outer loop
vertex 6.68333 6.68333 -4.66667
vertex 11.31667 8.60252 -4.66667
vertex 6.68333 -6.68333 -4.66667
endloop
endfacet
facet normal 0 0 1
outer loop
vertex 6.68333 6.68333 0.06667
vertex 11.31667 8.60252 0.06667
vertex 8.60252 11.31667 0.06667
endloop
endfacet
facet normal 0 -0 -1
outer loop
vertex 8.60252 11.31667 -4.66667
vertex 11.31667 8.60252 -4.66667
vertex 6.68333 6.68333 -4.66667
endloop
endfacet
facet normal 0 -0 1
outer loop
vertex 6.68333 6.68333 0.06667
vertex 8.60252 11.31667 0.06667
vertex -8.60252 11.31667 0.06667
endloop
endfacet
facet normal 0 0 -1
outer loop
vertex -8.60252 11.31667 -4.66667
vertex 8.60252 11.31667 -4.66667
vertex 6.68333 6.68333 -4.66667
endloop
endfacet
facet normal 0 0 1
outer loop
vertex 6.68333 6.68333 0.06667
vertex -8.60252 11.31667 0.06667
vertex -6.68333 6.68333 0.06667
endloop
endfacet
facet normal 0 0 -1
outer loop
vertex -6.68333 6.68333 -4.66667
vertex -8.60252 11.31667 -4.66667
vertex 6.68333 6.68333 -4.66667
endloop
endfacet
facet normal 0 0 1
outer loop
vertex -6.68333 6.68333 0.06667
vertex -8.60252 11.31667 0.06667
vertex -11.31667 8.60252 0.06667
endloop
endfacet
facet normal 0 0 -1
outer loop
vertex -11.31667 8.60252 -4.66667
vertex -8.60252 11.31667 -4.66667
vertex -6.68333 6.68333 -4.66667
endloop
endfacet
facet normal 0 0 1
outer loop
vertex -6.68333 6.68333 0.06667
vertex -11.31667 8.60252 0.06667
vertex -11.31667 -8.60252 0.06667
endloop
endfacet
facet normal 0 0 -1
outer loop
vertex -11.31667 -8.60252 -4.66667
vertex -11.31667 8.60252 -4.66667
vertex -6.68333 6.68333 -4.66667
endloop
endfacet
facet normal 0 0 1
outer loop
vertex -6.68333 6.68333 0.06667
vertex -11.31667 -8.60252 0.06667
vertex -6.68333 -6.68333 0.06667
endloop
endfacet
facet normal -0 0 -1
outer loop
vertex -6.68333 -6.68333 -4.66667
vertex -11.31667 -8.60252 -4.66667
vertex -6.68333 6.68333 -4.66667
endloop
endfacet
endsolid base